<svg height="512" viewBox="0 0 512 512" width="512" xmlns="http://www.w3.org/2000/svg"><g><g><path d="m472 488h-432l-8-24h448z" fill="#aa6100"/><path d="m392 240v88a136 136 0 0 1 -272 0v-88z" fill="#ff9811"/><path d="m472 280v32a40 40 0 0 1 -40 40h-40v-24h36a19.994 19.994 0 0 0 20-20v-24a19.994 19.994 0 0 0 -20-20h-36v-24h40a40 40 0 0 1 40 40z" fill="#aa6100"/></g><g><path d="m248 264h-96a8 8 0 0 0 0 16h96a8 8 0 0 0 0-16z"/><path d="m280 264h-8a8 8 0 0 0 0 16h8a8 8 0 0 0 0-16z"/><path d="m314.6 172.77c-8.29 7.594-18.6 17.044-18.6 35.23a8 8 0 0 0 16 0c0-11.147 5.916-16.57 13.4-23.435 8.285-7.594 18.6-17.044 18.6-35.23s-10.31-27.635-18.594-35.235c-7.49-6.862-13.406-12.285-13.406-23.433s5.916-16.57 13.4-23.436c8.29-7.594 18.6-17.045 18.6-35.231a8 8 0 0 0 -16 0c0 11.148-5.916 16.571-13.406 23.437-8.284 7.594-18.594 17.044-18.594 35.23s10.31 27.638 18.6 35.232c7.489 6.866 13.4 12.289 13.4 23.436s-5.916 16.57-13.4 23.435z"/><path d="m250.6 172.77c-8.29 7.594-18.6 17.044-18.6 35.23a8 8 0 0 0 16 0c0-11.147 5.916-16.57 13.4-23.435 8.285-7.594 18.6-17.044 18.6-35.23s-10.31-27.635-18.594-35.235c-7.49-6.862-13.406-12.285-13.406-23.433s5.916-16.57 13.4-23.436c8.29-7.594 18.6-17.045 18.6-35.231a8 8 0 0 0 -16 0c0 11.148-5.916 16.571-13.406 23.437-8.284 7.594-18.594 17.044-18.594 35.23s10.31 27.638 18.6 35.232c7.484 6.866 13.4 12.289 13.4 23.436s-5.916 16.57-13.4 23.435z"/><path d="m186.6 172.77c-8.29 7.594-18.6 17.044-18.6 35.23a8 8 0 0 0 16 0c0-11.147 5.916-16.57 13.405-23.435 8.285-7.594 18.6-17.044 18.6-35.23s-10.315-27.635-18.599-35.235c-7.49-6.862-13.406-12.285-13.406-23.433s5.916-16.57 13.405-23.436c8.285-7.594 18.595-17.045 18.595-35.231a8 8 0 0 0 -16 0c0 11.148-5.916 16.571-13.406 23.437-8.284 7.594-18.594 17.044-18.594 35.23s10.31 27.638 18.6 35.232c7.484 6.866 13.4 12.289 13.4 23.436s-5.916 16.57-13.4 23.435z"/><path d="m496 456h-174.08a144.573 144.573 0 0 0 74.49-96h35.59a48.051 48.051 0 0 0 48-48v-32a48.051 48.051 0 0 0 -48-48h-312a8 8 0 0 0 -8 8v88a144.137 144.137 0 0 0 78.08 128h-174.08a8 8 0 0 0 0 16h10.23l6.18 18.53a8 8 0 0 0 7.59 5.47h432a8 8 0 0 0 7.59-5.47l6.18-18.53h10.23a8 8 0 0 0 0-16zm-96-184h28a12.01 12.01 0 0 1 12 12v24a12.01 12.01 0 0 1 -12 12h-28zm0 64h28a28.031 28.031 0 0 0 28-28v-24a28.031 28.031 0 0 0 -28-28h-28v-8h32a32.036 32.036 0 0 1 32 32v32a32.036 32.036 0 0 1 -32 32h-32zm-272-8v-80h256v80a128 128 0 0 1 -256 0zm338.23 152h-420.46l-2.67-8h425.8z"/></g></g></svg>