<svg id="Capa_1" enable-background="new 0 0 512 512" height="512" viewBox="0 0 512 512" width="512" xmlns="http://www.w3.org/2000/svg"><g><g><g><g><g><g><g><path d="m444.699 366.635h-72.585c-9.497 0-17.195-7.699-17.195-17.195s7.699-17.195 17.195-17.195h72.585c14.011 0 25.411-11.4 25.411-25.411s-11.4-25.411-25.411-25.411h-35.715c-9.497 0-17.195-7.699-17.195-17.195s7.699-17.195 17.195-17.195h35.715c32.974 0 59.801 26.827 59.801 59.801s-26.827 59.801-59.801 59.801z" fill="#5591d6"/></g><path d="m87.365 237.966c-1.69 9.449-2.573 19.177-2.573 29.112.006 89.931 73.246 163.649 163.175 164.21 91.18.569 165.273-73.173 165.273-164.221 0-9.931-.883-19.656-2.573-29.101-.851-4.754-5.016-8.2-9.846-8.2h-303.61c-4.83 0-8.995 3.446-9.846 8.2z" fill="#f2fbff"/><path d="m413.238 267.069c0 91.05-74.094 164.785-165.275 164.214-6.312-.04-12.534-.44-18.666-1.17 81.397-9.733 144.498-79.016 144.498-163.044 0-9.933-.88-19.657-2.571-29.1-.85-4.762-5.011-8.203-9.843-8.203h39.443c4.832 0 8.993 3.441 9.843 8.203 1.69 9.444 2.571 19.167 2.571 29.1z" fill="#dff6fd"/></g><path d="m393.978 466.341h-287.734c-12.662 0-22.927-10.265-22.927-22.927v-14.641c0-6.331 5.132-11.463 11.463-11.463h310.662c6.331 0 11.463 5.132 11.463 11.463v14.641c0 12.663-10.264 22.927-22.927 22.927z" fill="#5591d6"/><path d="m416.902 428.77v14.645c0 12.664-10.263 22.928-22.928 22.928h-34.772c12.664 0 22.928-10.263 22.928-22.928v-14.645c0-6.332-5.132-11.464-11.464-11.464h34.771c6.333.001 11.465 5.132 11.465 11.464z" fill="#1475cb"/></g><g><g><path d="m118.313 466.341h-99.35c-6.331 0-11.463-5.132-11.463-11.463v-136.025c0-6.331 5.132-11.463 11.463-11.463h99.35c6.331 0 11.463 5.132 11.463 11.463v136.025c0 6.331-5.132 11.463-11.463 11.463z" fill="#c76d3d"/><path d="m129.776 318.852v136.025c0 6.332-5.132 11.464-11.464 11.464h-31.24c6.332 0 11.464-5.132 11.464-11.464v-136.025c0-6.332-5.132-11.464-11.464-11.464h31.24c6.333 0 11.464 5.132 11.464 11.464z" fill="#aa5e33"/></g></g></g><g><path d="m161.594 229.621v81.782c0 9.254 7.502 16.756 16.756 16.756 9.254 0 16.756-7.502 16.756-16.756v-15.641c0-12.538 10.164-22.702 22.702-22.702 12.538 0 22.702-10.164 22.702-22.702v-20.738h-78.916z" fill="#dff6fd"/><g><path d="m161.594 231.071v61.27c0 9.254 7.502 16.756 16.756 16.756 9.254 0 16.756-7.502 16.756-16.756v-15.641c0-12.538 10.164-22.702 22.702-22.702 12.538 0 22.702-10.164 22.702-22.702v-.226c0-5.525-4.479-10.003-10.003-10.003h-58.908c-5.526 0-10.005 4.479-10.005 10.004z" fill="#c76d3d"/></g></g></g></g><g><path d="m444.699 239.533h-26.165c-.156-.965-.312-1.929-.483-2.89-1.492-8.331-8.738-14.377-17.229-14.377h-85.327c-4.143 0-7.5 3.357-7.5 7.5s3.357 7.5 7.5 7.5h85.327c1.218 0 2.253.851 2.463 2.02 1.629 9.108 2.455 18.455 2.455 27.781 0 30.413-8.719 59.905-25.214 85.286-16.077 24.737-38.672 44.389-65.341 56.828-.385.18-.742.395-1.082.628h-129.698c-.148-.08-.293-.163-.448-.234-17.454-8.029-33.151-19.096-46.681-32.887v-15.192c0-4.143-3.357-7.5-7.5-7.5s-7.5 3.357-7.5 7.5v17.869h-46.137v-64.475h42.174c2.186 0 3.964 1.778 3.964 3.964v9.652c0 4.143 3.357 7.5 7.5 7.5s7.5-3.357 7.5-7.5v-9.652c0-10.457-8.507-18.964-18.964-18.964h-22.531c-2.31-10.741-3.488-21.758-3.489-32.813-.001-9.329.825-18.68 2.455-27.79.209-1.171 1.245-2.021 2.463-2.021h56.883v55.074c0 13.375 10.881 24.256 24.256 24.256s24.256-10.881 24.256-24.256v-15.64c0-8.383 6.819-15.202 15.201-15.202 14.61 0 26.828-10.428 29.607-24.231h35.091c4.143 0 7.5-3.357 7.5-7.5s-3.357-7.5-7.5-7.5h-36.896c-3.04-5.194-8.664-8.699-15.104-8.699h-58.907c-6.44 0-12.064 3.506-15.104 8.699h-59.283c-8.492 0-15.738 6.047-17.229 14.379-1.785 9.98-2.69 20.22-2.689 30.434.001 11.034 1.083 22.036 3.187 32.811h-61.517c-10.456-.001-18.963 8.505-18.963 18.963v136.024c0 10.456 8.507 18.963 18.963 18.963h266.875c4.143 0 7.5-3.357 7.5-7.5s-3.357-7.5-7.5-7.5h-148.985c.273-1.279.424-2.603.424-3.963v-30.068h268.165c2.186 0 3.964 1.778 3.964 3.964v14.642c0 8.506-6.921 15.426-15.427 15.426h-75.15c-4.143 0-7.5 3.357-7.5 7.5s3.357 7.5 7.5 7.5h75.15c16.777 0 30.427-13.649 30.427-30.426v-14.642c0-10.457-8.507-18.964-18.964-18.964h-60.956c14.66-9.814 27.738-21.83 38.782-35.674h61.432c37.109 0 67.301-30.191 67.301-67.302-.001-37.109-30.192-67.301-67.302-67.301zm-275.605-8.463c0-1.38 1.123-2.503 2.504-2.503h58.907c1.381 0 2.504 1.123 2.504 2.503v.227c0 8.382-6.819 15.201-15.202 15.201-16.653 0-30.201 13.549-30.201 30.202v15.641c0 5.104-4.152 9.256-9.256 9.256s-9.256-4.152-9.256-9.256zm-150.131 83.82h42.176v64.476h-46.139v-60.512c0-2.186 1.777-3.964 3.963-3.964zm-3.963 139.988v-60.513h46.139v64.476h-42.176c-2.186 0-3.963-1.778-3.963-3.963zm61.139 3.963v-64.476h46.138v60.513c0 2.186-1.778 3.963-3.964 3.963zm61.137-61.604c5.26 4.531 10.77 8.725 16.511 12.572h-16.511zm282.054-108.314h25.369c9.876 0 17.91 8.035 17.91 17.911s-8.034 17.911-17.91 17.911h-33.921c4.124-11.57 6.992-23.57 8.552-35.822zm25.369 70.213h-50.727c3.981-6.256 7.541-12.729 10.656-19.391h40.071c18.146 0 32.91-14.764 32.91-32.911s-14.764-32.911-32.91-32.911h-24.104c.09-2.28.145-4.565.145-6.855 0-4.181-.16-8.365-.462-12.534h24.421c28.839 0 52.301 23.462 52.301 52.301s-23.462 52.301-52.301 52.301z"/><path d="m181.594 116.159h108.024c7.995 0 14.5 6.505 14.5 14.5s-6.505 14.5-14.5 14.5h-40.321c-15.163 0-27.5 12.337-27.5 27.5v12c0 4.143 3.357 7.5 7.5 7.5s7.5-3.357 7.5-7.5v-12c0-6.893 5.607-12.5 12.5-12.5h70.388c16.267 0 29.5-13.233 29.5-29.5s-13.233-29.5-29.5-29.5h-108.273c-6.893 0-12.5-5.607-12.5-12.5s5.607-12.5 12.5-12.5h17.604c15.163 0 27.5-12.337 27.5-27.5v-3c0-4.143-3.357-7.5-7.5-7.5s-7.5 3.357-7.5 7.5v3c0 6.893-5.607 12.5-12.5 12.5h-47.423c-15.163 0-27.5 12.337-27.5 27.5s12.338 27.5 27.501 27.5zm152.591 14.5c0 7.995-6.505 14.5-14.5 14.5h-4.391c2.43-4.286 3.825-9.231 3.825-14.5s-1.395-10.214-3.825-14.5h4.391c7.995 0 14.5 6.505 14.5 14.5zm-152.591-54.5h5.336c-1.924 3.753-3.018 8-3.018 12.5s1.094 8.747 3.018 12.5h-5.336c-6.893 0-12.5-5.607-12.5-12.5s5.607-12.5 12.5-12.5z"/></g></g></svg>