<svg height="496pt" viewBox="0 -12 496 496" width="496pt" xmlns="http://www.w3.org/2000/svg"><path d="m8 136h400v120c0 97.203125-78.796875 176-176 176h-48c-97.203125 0-176-78.796875-176-176zm0 0" fill="#ffda44"/><path d="m8 432h440c0 17.671875-14.328125 32-32 32h-376c-17.671875 0-32-14.328125-32-32zm0 0" fill="#acabb1"/><path d="m488 160v136h-80v-32h48v-72h-48v-32zm0 0" fill="#d8d7da"/><path d="m224 200c0 48.601562-39.398438 88-88 88s-88-39.398438-88-88h32c0 30.929688 25.070312 56 56 56s56-25.070312 56-56zm0 0" fill="#e1fd9f"/><path d="m192 200c0 30.929688-25.070312 56-56 56s-56-25.070312-56-56zm0 0" fill="#f9ed32"/><path d="m311.113281 230.664062c22.476563 22.179688 31.347657 54.703126 23.242188 85.226563s-31.941407 54.359375-62.464844 62.464844-63.046875-.765625-85.226563-23.242188l22.625-22.625c21.871094 21.871094 57.328126 21.871094 79.199219 0 21.871094-21.871093 21.871094-57.328125 0-79.199219zm0 0" fill="#e1fd9f"/><path d="m288.488281 253.289062c21.871094 21.871094 21.871094 57.328126 0 79.199219-21.871093 21.871094-57.328125 21.871094-79.199219 0zm0 0" fill="#f9ed32"/><g fill="#231f20"><path d="m488 152h-72v-16c0-4.417969-3.582031-8-8-8h-400c-4.417969 0-8 3.582031-8 8v120c.0820312 72.605469 42.800781 138.394531 109.097656 168h-101.097656c-4.417969 0-8 3.582031-8 8 .0273438 22.082031 17.917969 39.972656 40 40h376c22.082031-.027344 39.972656-17.917969 40-40 0-4.417969-3.582031-8-8-8h-141.097656c50.464844-22.621094 88.144531-66.648438 102.699218-120h78.398438c4.417969 0 8-3.582031 8-8v-136c0-4.417969-3.582031-8-8-8zm-72 48h32v56h-32zm22.632812 240c-3.402343 9.582031-12.464843 15.988281-22.632812 16h-376c-10.167969-.011719-19.230469-6.417969-22.632812-16zm-206.632812-16h-48c-92.742188-.101562-167.898438-75.257812-168-168v-112h384v112c-.101562 92.742188-75.257812 167.898438-168 168zm248-136h-64v-16h40c4.417969 0 8-3.582031 8-8v-72c0-4.417969-3.582031-8-8-8h-40v-16h64zm0 0"/><path d="m113.761719 112c0 4.417969 3.578125 8 8 8 4.417969 0 8-3.582031 8-8-.082031-4.664062 1.609375-9.183594 4.734375-12.648438 10.316406-12.851562 10.316406-31.148437 0-44-3.128906-3.46875-4.820313-7.996093-4.734375-12.664062-.082031-4.667969 1.609375-9.195312 4.734375-12.664062 5.113281-6.191407 7.855468-13.996094 7.742187-22.023438 0-4.417969-3.578125-8-8-8-4.417969 0-8 3.582031-8 8 .082031 4.667969-1.609375 9.195312-4.734375 12.664062-5.109375 6.1875-7.851562 13.984376-7.742187 22.007813-.109375 8.023437 2.632812 15.820313 7.742187 22.007813 6.316406 7.257812 6.316406 18.0625 0 25.320312-5.105468 6.183594-7.851562 13.980469-7.742187 22zm0 0"/><path d="m209.761719 112c0 4.417969 3.578125 8 8 8 4.417969 0 8-3.582031 8-8-.082031-4.664062 1.609375-9.183594 4.734375-12.648438 10.316406-12.851562 10.316406-31.148437 0-44-3.128906-3.46875-4.820313-7.996093-4.734375-12.664062-.082031-4.667969 1.609375-9.195312 4.734375-12.664062 5.113281-6.191407 7.855468-13.996094 7.742187-22.023438 0-4.417969-3.578125-8-8-8-4.417969 0-8 3.582031-8 8 .082031 4.667969-1.609375 9.195312-4.734375 12.664062-5.109375 6.1875-7.851562 13.984376-7.742187 22.007813-.109375 8.023437 2.632812 15.820313 7.742187 22.007813 6.316406 7.257812 6.316406 18.0625 0 25.320312-5.105468 6.183594-7.851562 13.980469-7.742187 22zm0 0"/><path d="m305.761719 112c0 4.417969 3.578125 8 8 8 4.417969 0 8-3.582031 8-8-.082031-4.664062 1.609375-9.183594 4.734375-12.648438 10.316406-12.851562 10.316406-31.148437 0-44-3.128906-3.46875-4.820313-7.996093-4.734375-12.664062-.082031-4.667969 1.609375-9.195312 4.734375-12.664062 5.113281-6.191407 7.855468-13.996094 7.742187-22.023438 0-4.417969-3.578125-8-8-8-4.417969 0-8 3.582031-8 8 .082031 4.667969-1.609375 9.195312-4.734375 12.664062-5.109375 6.1875-7.851562 13.984376-7.742187 22.007813-.109375 8.023437 2.632812 15.820313 7.742187 22.007813 6.316406 7.257812 6.316406 18.0625 0 25.320312-5.105468 6.183594-7.851562 13.980469-7.742187 22zm0 0"/><path d="m344 168h-96c-4.417969 0-8 3.582031-8 8s3.582031 8 8 8h96c4.417969 0 8-3.582031 8-8s-3.582031-8-8-8zm0 0"/><path d="m376 168h-8c-4.417969 0-8 3.582031-8 8s3.582031 8 8 8h8c4.417969 0 8-3.582031 8-8s-3.582031-8-8-8zm0 0"/><path d="m232 200c0-4.417969-3.582031-8-8-8h-176c-4.417969 0-8 3.582031-8 8 0 53.019531 42.980469 96 96 96s96-42.980469 96-96zm-48.71875 8c-3.882812 23.085938-23.871094 39.992188-47.28125 39.992188s-43.398438-16.90625-47.28125-39.992188zm-47.28125 72c-41.066406-.050781-75.441406-31.144531-79.601562-72h16.097656c4.011718 32.019531 31.234375 56.046875 63.503906 56.046875s59.492188-24.027344 63.503906-56.046875h16.097656c-4.160156 40.855469-38.535156 71.949219-79.601562 72zm0 0"/><path d="m136 232c1.050781.027344 2.089844-.191406 3.039062-.640625.96875-.40625 1.863282-.972656 2.640626-1.679687.320312-.398438.640624-.800782.960937-1.28125.316406-.40625.558594-.867188.71875-1.359376.230469-.453124.394531-.9375.480469-1.4375.09375-.53125.148437-1.066406.160156-1.601562-.03125-2.117188-.859375-4.144531-2.320312-5.679688-.777344-.707031-1.671876-1.273437-2.640626-1.679687-2.988281-1.167969-6.378906-.511719-8.71875 1.679687-2.308593 2.289063-3 5.746094-1.753906 8.746094 1.246094 3.003906 4.183594 4.953125 7.433594 4.933594zm0 0"/><path d="m305.457031 225.007812-124.449219 124.449219c-3.121093 3.121094-3.121093 8.1875 0 11.3125 37.488282 37.496094 98.277344 37.503907 135.777344.015625 37.496094-37.492187 37.503906-98.277344.015625-135.777344-1.503906-1.507812-3.542969-2.359374-5.671875-2.359374s-4.171875.851562-5.671875 2.359374zm-17.457031 40.105469c13.640625 19.070313 11.488281 45.210938-5.09375 61.792969s-42.722656 18.734375-61.792969 5.09375zm17.480469 84.34375c-29.074219 29-75.371094 31.320313-107.199219 5.375l11.382812-11.382812c25.480469 19.757812 61.683594 17.476562 84.480469-5.328125 22.796875-22.804688 25.070313-59.003906 5.304688-84.480469l11.382812-11.382813c25.945313 31.828126 23.625 78.121094-5.375 107.199219zm0 0"/><path d="m265.855469 317.886719c2.121093-.054688 4.140625-.914063 5.65625-2.398438.765625-.71875 1.34375-1.613281 1.695312-2.601562.402344-.96875.632813-2.003907.679688-3.054688-.054688-.511719-.109375-1.015625-.222657-1.601562-.0625-.511719-.21875-1.011719-.457031-1.46875-.15625-.488281-.386719-.945313-.679687-1.363281-.304688-.4375-.644532-.851563-1.015625-1.238282-1.515625-1.484375-3.535157-2.34375-5.65625-2.398437-1.050781.046875-2.082031.277343-3.054688.679687-2.484375.992188-4.296875 3.175782-4.824219 5.796875-.523437 2.625.3125 5.335938 2.222657 7.210938 1.511719 1.496093 3.53125 2.371093 5.65625 2.4375zm0 0"/></g></svg>